<svg width="386" height="63" viewBox="0 0 386 63" fill="none" xmlns="http://www.w3.org/2000/svg">
<path d="M2.304 28.16C2.208 23.648 3.792 19.776 7.056 16.544C10.352 13.312 14.256 11.728 18.768 11.792C21.552 11.792 24.096 12.4 26.4 13.616C28.736 14.832 30.576 16.496 31.92 18.608L29.136 20.816C26.544 17.104 23.104 15.248 18.816 15.248C15.232 15.248 12.224 16.48 9.792 18.944C7.392 21.408 6.192 24.48 6.192 28.16C6.192 31.84 7.392 34.912 9.792 37.376C12.224 39.84 15.232 41.072 18.816 41.072C23.104 41.072 26.544 39.216 29.136 35.504L31.92 37.712C30.576 39.824 28.736 41.488 26.4 42.704C24.096 43.92 21.552 44.528 18.768 44.528C14.256 44.592 10.352 43.008 7.056 39.776C3.792 36.544 2.208 32.672 2.304 28.16ZM53.7581 29.6V44H50.3021V40.976C48.5101 43.344 45.8861 44.528 42.4301 44.528C39.9981 44.528 38.0301 43.936 36.5261 42.752C35.0221 41.536 34.2701 39.936 34.2701 37.952C34.2701 35.968 35.0381 34.384 36.5741 33.2C38.1101 32.016 40.1421 31.424 42.6701 31.424H50.0621V29.408C50.0621 27.52 49.5501 26.064 48.5261 25.04C47.5341 24.016 46.1581 23.504 44.3981 23.504C41.7741 23.504 39.5021 24.752 37.5821 27.248L35.1341 25.232C37.2141 21.808 40.3821 20.096 44.6381 20.096C47.4541 20.096 49.6781 20.928 51.3101 22.592C52.9421 24.224 53.7581 26.56 53.7581 29.6ZM50.0621 35.024V34.448H43.1021C39.7421 34.448 38.0621 35.552 38.0621 37.76C38.0621 38.912 38.5101 39.824 39.4061 40.496C40.3341 41.136 41.5021 41.456 42.9101 41.456C44.8621 41.456 46.5421 40.832 47.9501 39.584C49.3581 38.336 50.0621 36.816 50.0621 35.024ZM80.2215 23.6C82.4295 25.936 83.5335 28.832 83.5335 32.288C83.5335 35.744 82.4135 38.656 80.1735 41.024C77.9655 43.36 75.2295 44.528 71.9655 44.528C68.2855 44.528 65.4215 43.232 63.3735 40.64V52.64H59.6775V20.624H63.1335V24.368C64.0295 23.024 65.2615 21.984 66.8295 21.248C68.3975 20.48 70.1095 20.096 71.9655 20.096C75.2935 20.096 78.0455 21.264 80.2215 23.6ZM77.3415 38.624C78.9415 36.96 79.7415 34.864 79.7415 32.336C79.7415 29.808 78.9415 27.712 77.3415 26.048C75.7735 24.352 73.8055 23.504 71.4375 23.504C69.1975 23.504 67.2775 24.272 65.6775 25.808C64.1095 27.344 63.3255 29.504 63.3255 32.288C63.3255 35.136 64.0935 37.328 65.6295 38.864C67.1975 40.368 69.1335 41.12 71.4375 41.12C73.8055 41.12 75.7735 40.288 77.3415 38.624ZM85.8776 39.968L88.2296 37.52C89.4456 38.768 90.5496 39.68 91.5416 40.256C92.5656 40.832 93.7016 41.12 94.9496 41.12C96.2616 41.12 97.3336 40.832 98.1656 40.256C98.9976 39.648 99.4136 38.832 99.4136 37.808C99.4136 36.912 99.1096 36.224 98.5016 35.744C97.9256 35.232 96.8696 34.672 95.3336 34.064L93.0776 33.104C91.0616 32.272 89.5896 31.36 88.6616 30.368C87.7336 29.376 87.2696 28.128 87.2696 26.624C87.2696 24.64 88.0056 23.056 89.4776 21.872C90.9816 20.688 92.8696 20.096 95.1416 20.096C98.3096 20.096 100.918 21.328 102.966 23.792L100.71 26.096C98.9816 24.368 97.0616 23.504 94.9496 23.504C93.7656 23.504 92.8216 23.76 92.1176 24.272C91.4136 24.784 91.0616 25.504 91.0616 26.432C91.0616 27.168 91.3176 27.776 91.8296 28.256C92.3736 28.704 93.3816 29.232 94.8536 29.84L97.0136 30.752C99.2536 31.712 100.838 32.72 101.766 33.776C102.726 34.8 103.206 36.096 103.206 37.664C103.206 39.84 102.406 41.536 100.806 42.752C99.2376 43.936 97.3016 44.528 94.9976 44.528C91.2536 44.528 88.2136 43.008 85.8776 39.968ZM107.674 34.688V20.624H111.322V34.928C111.322 36.784 111.882 38.288 113.003 39.44C114.155 40.56 115.611 41.12 117.371 41.12C119.099 41.12 120.523 40.544 121.642 39.392C122.763 38.24 123.323 36.752 123.323 34.928V20.624H127.019V34.688C127.019 37.6 126.091 39.968 124.235 41.792C122.411 43.616 120.123 44.528 117.371 44.528C114.587 44.528 112.266 43.616 110.411 41.792C108.586 39.968 107.674 37.6 107.674 34.688ZM132.902 44V8H136.598V44H132.902ZM163.434 33.44H144.954C145.178 35.744 146.09 37.6 147.69 39.008C149.29 40.416 151.242 41.12 153.546 41.12C156.202 41.12 158.586 40.064 160.698 37.952L162.858 40.448C160.234 43.168 157.114 44.528 153.498 44.528C150.01 44.528 147.066 43.36 144.666 41.024C142.298 38.656 141.114 35.76 141.114 32.336C141.114 28.944 142.266 26.064 144.57 23.696C146.906 21.296 149.738 20.096 153.066 20.096C156.106 20.096 158.634 21.088 160.65 23.072C162.698 25.056 163.722 27.584 163.722 30.656C163.722 31.552 163.626 32.48 163.434 33.44ZM145.098 30.176H159.93C159.898 28.128 159.226 26.496 157.914 25.28C156.602 24.064 154.954 23.456 152.97 23.456C151.018 23.456 149.322 24.08 147.882 25.328C146.442 26.544 145.514 28.16 145.098 30.176ZM178.053 28.16C177.957 23.648 179.541 19.776 182.805 16.544C186.101 13.312 190.005 11.728 194.517 11.792C197.301 11.792 199.845 12.4 202.149 13.616C204.485 14.832 206.325 16.496 207.669 18.608L204.885 20.816C202.293 17.104 198.853 15.248 194.565 15.248C190.981 15.248 187.973 16.48 185.541 18.944C183.141 21.408 181.941 24.48 181.941 28.16C181.941 31.84 183.141 34.912 185.541 37.376C187.973 39.84 190.981 41.072 194.565 41.072C198.853 41.072 202.293 39.216 204.885 35.504L207.669 37.712C206.325 39.824 204.485 41.488 202.149 42.704C199.845 43.92 197.301 44.528 194.517 44.528C190.005 44.592 186.101 43.008 182.805 39.776C179.541 36.544 177.957 32.672 178.053 28.16ZM210.073 32.288C210.009 28.96 211.193 26.08 213.625 23.648C216.089 21.216 218.985 20.032 222.313 20.096C225.673 20.032 228.569 21.216 231.001 23.648C233.433 26.08 234.617 28.96 234.553 32.288C234.617 35.584 233.417 38.464 230.953 40.928C228.489 43.36 225.593 44.544 222.265 44.48C218.937 44.544 216.057 43.36 213.625 40.928C211.193 38.464 210.009 35.584 210.073 32.288ZM230.761 32.336C230.761 29.84 229.945 27.744 228.313 26.048C226.713 24.352 224.713 23.504 222.313 23.504C219.913 23.504 217.897 24.352 216.265 26.048C214.665 27.712 213.865 29.808 213.865 32.336C213.865 34.8 214.665 36.88 216.265 38.576C217.897 40.24 219.897 41.072 222.265 41.072C224.633 41.072 226.633 40.224 228.265 38.528C229.929 36.832 230.761 34.768 230.761 32.336ZM239.13 44V8H242.826V44H239.13ZM249.023 44V8H252.719V44H249.023ZM279.555 33.44H261.075C261.299 35.744 262.211 37.6 263.811 39.008C265.411 40.416 267.363 41.12 269.667 41.12C272.323 41.12 274.707 40.064 276.819 37.952L278.979 40.448C276.355 43.168 273.235 44.528 269.619 44.528C266.131 44.528 263.187 43.36 260.787 41.024C258.419 38.656 257.235 35.76 257.235 32.336C257.235 28.944 258.387 26.064 260.691 23.696C263.027 21.296 265.859 20.096 269.187 20.096C272.227 20.096 274.755 21.088 276.771 23.072C278.819 25.056 279.843 27.584 279.843 30.656C279.843 31.552 279.747 32.48 279.555 33.44ZM261.219 30.176H276.051C276.019 28.128 275.347 26.496 274.035 25.28C272.723 24.064 271.075 23.456 269.091 23.456C267.139 23.456 265.443 24.08 264.003 25.328C262.563 26.544 261.635 28.16 261.219 30.176ZM282.737 32.288C282.673 28.96 283.857 26.08 286.289 23.648C288.721 21.216 291.617 20.032 294.977 20.096C296.993 20.096 298.833 20.544 300.497 21.44C302.161 22.336 303.537 23.584 304.625 25.184L301.985 27.296C300.129 24.768 297.809 23.504 295.025 23.504C292.625 23.504 290.609 24.368 288.977 26.096C287.345 27.792 286.529 29.856 286.529 32.288C286.529 34.752 287.345 36.848 288.977 38.576C290.609 40.272 292.625 41.12 295.025 41.12C297.777 41.12 300.081 39.872 301.937 37.376L304.577 39.44C302.273 42.832 299.073 44.528 294.977 44.528C291.585 44.528 288.689 43.344 286.289 40.976C283.921 38.576 282.737 35.68 282.737 32.288ZM321.702 40.88V44C320.134 44.352 318.838 44.528 317.814 44.528C315.318 44.528 313.382 43.888 312.006 42.608C310.63 41.328 309.942 39.44 309.942 36.944V23.936H306.006V20.624H309.942V14.24H313.638V20.624H320.934V23.936H313.638V36.704C313.638 38.304 314.038 39.456 314.838 40.16C315.67 40.832 316.918 41.168 318.582 41.168C319.478 41.168 320.518 41.072 321.702 40.88ZM325.296 44V20.624H328.992V44H325.296ZM324.384 11.696C324.384 10.96 324.656 10.336 325.2 9.824C325.744 9.28 326.4 9.008 327.168 9.008C327.904 9.008 328.544 9.28 329.088 9.824C329.632 10.336 329.904 10.96 329.904 11.696C329.904 12.464 329.632 13.104 329.088 13.616C328.576 14.128 327.936 14.384 327.168 14.384C326.4 14.384 325.744 14.128 325.2 13.616C324.656 13.104 324.384 12.464 324.384 11.696ZM333.508 32.288C333.444 28.96 334.628 26.08 337.06 23.648C339.524 21.216 342.42 20.032 345.748 20.096C349.108 20.032 352.004 21.216 354.436 23.648C356.868 26.08 358.052 28.96 357.988 32.288C358.052 35.584 356.852 38.464 354.388 40.928C351.924 43.36 349.028 44.544 345.7 44.48C342.372 44.544 339.492 43.36 337.06 40.928C334.628 38.464 333.444 35.584 333.508 32.288ZM354.196 32.336C354.196 29.84 353.38 27.744 351.748 26.048C350.148 24.352 348.148 23.504 345.748 23.504C343.348 23.504 341.332 24.352 339.7 26.048C338.1 27.712 337.3 29.808 337.3 32.336C337.3 34.8 338.1 36.88 339.7 38.576C341.332 40.24 343.332 41.072 345.7 41.072C348.068 41.072 350.068 40.224 351.7 38.528C353.364 36.832 354.196 34.768 354.196 32.336ZM381.909 29.312V44H378.213V29.744C378.213 27.888 377.685 26.384 376.629 25.232C375.605 24.08 374.197 23.504 372.405 23.504C370.613 23.504 369.141 24.096 367.989 25.28C366.837 26.432 366.261 27.92 366.261 29.744V44H362.565V20.624H366.021V23.12C367.845 21.104 370.245 20.096 373.221 20.096C375.909 20.096 378.021 20.944 379.557 22.64C381.125 24.304 381.909 26.528 381.909 29.312Z" fill="white"/>
<line opacity="0.3" x1="2" y1="62" x2="384" y2="62" stroke="white" stroke-width="2"/>
</svg>
